Patient4_TMGait_0pt6_01_right_12_GRF.mot
version=1
nRows=26
nColumns=19
inDegrees=no
endheader
time	F1x	F1y	F1z	M1x	M1y	M1z	F2x	F2y	F2z	M2x	M2y	M2z	EC1x	EC1y	EC1z	EC2x	EC2y	EC2z
13.94	-4.0778	772.4535	55.0065	-282.5623	-52.4535	730.186	-4.2494	-5.6625	-2.4411	0.36297	1.7891	-4.9743	-0.0592	0.0182	-0.0073	-0.0462	0.0165	0.9585
13.9524	-6.5809	766.2139	57.3543	-280.1496	-55.0465	719.4006	-2.8971	-2.9716	-1.7204	0.59765	1.3139	-2.4572	-0.0592	0.0182	-0.0073	-0.0462	0.0165	0.9585
13.9649	-7.8347	758.7802	59.1468	-277.3429	-56.5965	707.039	-1.7762	-0.65731	-1.0792	0.8048	0.8947	-0.28708	-0.0592	0.0182	-0.0073	-0.0462	0.0165	0.9585
13.9773	-7.7061	750.7191	60.2677	-274.3714	-56.9621	693.8271	-0.94427	1.1487	-0.57221	0.9753	0.56682	1.4118	-0.0592	0.0182	-0.0073	-0.0462	0.0165	0.9585
13.9897	-6.3307	742.6782	60.7246	-271.487	-56.2186	680.4779	-0.38423	2.442	-0.21166	1.1084	0.34029	2.6205	-0.0592	0.0182	-0.0073	-0.0462	0.0165	0.9585
14.0021	-3.9815	735.2331	60.6436	-268.9057	-54.6083	667.585	-0.060298	3.2858	0.016841	1.2074	0.21015	3.3932	-0.0592	0.0182	-0.0073	-0.0462	0.0165	0.9585
14.0146	-1.0141	728.8246	60.1647	-266.7826	-52.4053	655.5913	0.083332	3.7539	0.13976	1.27	0.15865	3.7954	-0.0592	0.0182	-0.0073	-0.0462	0.0165	0.9585
14.027	2.2493	723.7212	59.4653	-265.2024	-49.8958	644.7755	0.085193	3.9189	0.18763	1.2902	0.16544	3.9101	-0.0592	0.0182	-0.0073	-0.0462	0.0165	0.9585
14.0394	5.5657	720.0614	58.6846	-264.1987	-47.2976	635.3001	-0.0084492	3.8059	0.18897	1.25	0.20664	3.7593	-0.0592	0.0182	-0.0073	-0.0462	0.0165	0.9585
14.0519	8.8082	717.89	57.9533	-263.7695	-44.7839	627.2153	-0.17314	3.4151	0.16601	1.124	0.27071	3.3455	-0.0592	0.0182	-0.0073	-0.0462	0.0165	0.9585
14.0643	11.9303	717.2015	57.3316	-263.8971	-42.432	620.5093	-0.37882	2.7074	0.14001	0.87833	0.33894	2.6184	-0.0592	0.0182	-0.0073	-0.0462	0.0165	0.9585
14.0767	14.9802	717.9539	56.8532	-264.5514	-40.2592	615.1358	-0.60342	1.6159	0.11682	0.47462	0.40149	1.5044	-0.0592	0.0182	-0.0073	-0.0462	0.0165	0.9585
14.0891	18.0242	720.0666	56.5091	-265.688	-38.2322	611.0176	-0.81061	0.071855	0.10762	-0.12095	0.43652	-0.066161	-0.0592	0.0182	-0.0073	-0.0462	0.0165	0.9585
14.1016	21.1161	723.3623	56.3149	-267.2272	-36.3434	607.9974	-0.94798	-1.9563	0.1087	-0.92295	0.43375	-2.1249	-0.0592	0.0182	-0.0073	-0.0462	0.0165	0.9585
14.114	24.3018	727.5502	56.2814	-269.0442	-34.5822	605.8378	-0.95462	-4.4013	0.12665	-1.9046	0.36794	-4.602	-0.0592	0.0182	-0.0073	-0.0462	0.0165	0.9585
14.1264	27.5905	732.1863	56.4285	-270.951	-32.9567	604.1989	-0.73402	-7.0225	0.15308	-2.9661	0.21207	-7.2574	-0.0592	0.0182	-0.0073	-0.0462	0.0165	0.9585
14.1389	30.9585	736.6296	56.7483	-272.6875	-31.4623	602.5968	-0.17681	-9.3036	0.18297	-3.8948	-0.074422	-9.5658	-0.0592	0.0182	-0.0073	-0.0462	0.0165	0.9585
14.1513	34.3393	740.066	57.2206	-273.9242	-30.1051	600.4494	0.85131	-10.3708	0.19162	-4.3302	-0.52019	-10.6482	-0.0592	0.0182	-0.0073	-0.0462	0.0165	0.9585
14.1637	37.6441	741.5878	57.7975	-274.2992	-28.8822	597.1083	2.4653	-8.9041	0.15924	-3.7326	-1.1502	-9.168	-0.0592	0.0182	-0.0073	-0.0462	0.0165	0.9585
14.1761	40.7217	740.3658	58.4033	-273.4842	-27.8001	592.0088	4.7532	-3.1156	0.052275	-1.3704	-1.9599	-3.3235	-0.0592	0.0182	-0.0073	-0.0462	0.0165	0.9585
14.1886	43.4207	735.8095	58.937	-271.2454	-26.8495	584.773	7.6896	9.1946	-0.17055	3.6565	-2.8893	9.1171	-0.0592	0.0182	-0.0073	-0.0462	0.0165	0.9585
14.201	45.5863	727.586	59.2874	-267.4577	-26.0095	575.2308	11.0659	30.3984	-0.56042	12.3207	-3.7904	30.5749	-0.0592	0.0182	-0.0073	-0.0462	0.0165	0.9585
14.2134	47.0835	715.4992	59.3359	-262.0668	-25.2465	563.3086	14.3528	62.6	-1.1624	25.4866	-4.3927	63.2164	-0.0592	0.0182	-0.0073	-0.0462	0.0165	0.9585
14.2259	47.8785	699.3396	58.9348	-255.0361	-24.473	548.8736	16.4662	106.9386	-1.9972	43.6245	-4.2304	108.2391	-0.0592	0.0182	-0.0073	-0.0462	0.0165	0.9585
14.2383	48.0574	678.716	57.8969	-246.2954	-23.5237	531.5779	15.7902	162.5911	-3.0271	66.4024	-2.6934	164.8588	-0.0592	0.0182	-0.0073	-0.0462	0.0165	0.9585
14.2507	47.786	653.0675	56.0278	-235.7393	-22.1924	510.8555	11.1431	225.9718	-4.2057	92.3487	0.62766	229.5021	-0.0592	0.0182	-0.0073	-0.0462	0.0165	0.9585
